#!OML:ASF F:\VICON\USERDATA\INSTALL\rory3\rory3.ASF
:FULLY-SPECIFIED
:DEGREES
361
root 0.848522 17.8725 12.3956 -182.149 1.36681 -178.617
lowerback 13.757 2.2605 -0.180874
upperback 1.66469 3.18817 0.0569657
thorax -5.96045 1.65675 -0.441026
lowerneck -16.2092 -2.85721 -12.26
upperneck 36.4003 -7.06536 7.83731
head 16.5147 -4.76732 3.95867
rclavicle -9.0447e-015 -7.95139e-015
rhumerus -35.0893 -15.1996 -76.2516
rradius 38.2102
rwrist 4.57337
rhand -21.4861 7.76824
rfingers 7.12502
rthumb 4.90495 -22.155
lclavicle -9.0447e-015 -7.95139e-015
lhumerus -36.0337 14.2847 70.5484
lradius 34.3375
lwrist -5.54219
lhand -18.178 23.905
lfingers 7.12502
lthumb 8.09855 53.7298
rfemur -1.88003 1.48663 15.8464
rtibia 23.8899
rfoot -16.8733 -1.23805
rtoes -10.6733
lfemur -10.1854 -8.26937 -7.63318
ltibia 33.5842
lfoot -9.21111 10.8015
ltoes -10.4404
362
root 0.91854 17.8729 12.4112 -182.206 1.22435 -178.815
lowerback 13.7751 2.25663 -0.295423
upperback 1.63878 3.16235 0.0314696
thorax -6.00256 1.64547 -0.400248
lowerneck -16.0678 -2.83062 -12.2757
upperneck 36.387 -7.04922 7.83638
head 16.4705 -4.77031 3.96459
rclavicle 5.0218e-014 -9.93923e-016
rhumerus -35.0966 -14.8933 -76.0556
rradius 38.3348
rwrist 4.36165
rhand -21.3658 7.43022
rfingers 7.12502
rthumb 5.02112 -22.4903
lclavicle 5.0218e-014 -9.93923e-016
lhumerus -36.2916 14.2625 70.8366
lradius 34.5327
lwrist -5.75271
lhand -18.3732 24.335
lfingers 7.12502
lthumb 7.91012 54.167
rfemur -2.10206 1.48558 15.8901
rtibia 24.4037
rfoot -17.0906 -1.31819
rtoes -10.0628
lfemur -10.319 -7.50406 -8.61879
ltibia 34.3235
lfoot -10.4205 9.27732
ltoes -12.3164
363
root 0.980493 17.8697 12.4229 -182.245 1.07495 -178.957
lowerback 13.727 2.23038 -0.285027
upperback 1.62242 3.12625 0.0183101
thorax -5.99201 1.62658 -0.411353
lowerneck -15.8982 -2.81334 -12.4271
upperneck 36.3435 -7.06246 7.98283
head 16.4223 -4.78585 4.05515
rclavicle -1.16786e-014 3.57812e-015
rhumerus -35.1313 -14.6299 -75.8008
rradius 38.4212
rwrist 4.1158
rhand -21.2983 7.34018
rfingers 7.12502
rthumb 5.08629 -22.5788
lclavicle -1.16786e-014 3.57812e-015
lhumerus -36.5338 14.2449 71.1152
lradius 34.6748
lwrist -6.01308
lhand -18.8407 24.6868
lfingers 7.12502
lthumb 7.45887 54.5353
rfemur -2.3668 1.35059 15.9398
rtibia 25.0048
rfoot -17.3804 -1.3085
rtoes -9.56146
lfemur -10.4252 -6.80469 -9.59073
ltibia 35.0116
lfoot -11.7318 7.46976
ltoes -13.0235
364
root 1.04143 17.8578 12.4335 -182.251 0.849262 -179.235
lowerback 13.6289 2.19131 -0.438557
upperback 1.61089 3.04607 -0.0377406
thorax -5.95463 1.58962 -0.364904
lowerneck -15.8772 -2.82317 -12.4781
upperneck 36.3763 -7.0874 8.00457
head 16.4417 -4.8056 4.06969
rclavicle -1.9866e-014 8.94531e-016
rhumerus -35.1096 -14.5855 -75.5489
rradius 38.4131
rwrist 4.0887
rhand -21.4347 7.29983
rfingers 7.12502
rthumb 4.95458 -22.6222
lclavicle -1.9866e-014 8.94531e-016
lhumerus -36.6843 14.392 71.2822
lradius 34.6521
lwrist -6.43764
lhand -19.3714 24.4821
lfingers 7.12502
lthumb 6.94661 54.3481
rfemur -2.642 1.06863 15.8134
rtibia 25.622
rfoot -17.7214 -1.26845
rtoes -9.30482
lfemur -10.5488 -6.12564 -10.7347
ltibia 35.6688
lfoot -13.1872 5.61867
ltoes -15.2538
365
root 1.10333 17.85 12.4441 -182.293 0.653669 -179.427
lowerback 13.5181 2.15029 -0.483352
upperback 1.66475 2.98577 -0.0942281
thorax -5.83537 1.56263 -0.381562
lowerneck -15.9335 -2.85405 -12.513
upperneck 36.3492 -7.10707 8.03721
head 16.4486 -4.80665 4.08672
rclavicle -8.51047e-015 -9.93923e-016
rhumerus -35.006 -14.8233 -75.2679
rradius 38.3617
rwrist 4.34588
rhand -21.4004 7.46643
rfingers 7.12502
rthumb 4.98772 -22.4549
lclavicle -8.51047e-015 -9.93923e-016
lhumerus -36.6716 14.6849 71.3936
lradius 34.517
lwrist -6.78681
lhand -19.5029 24.0487
lfingers 7.12502
lthumb 6.81965 53.9189
rfemur -2.90306 0.939082 15.8246
rtibia 26.2254
rfoot -18.0096 -1.38562
rtoes -9.30043
lfemur -10.6379 -5.35631 -11.7858
ltibia 36.2889
lfoot -14.703 3.59017
ltoes -17.8626
366
root 1.16154 17.8447 12.4548 -182.286 0.514878 -179.401
lowerback 13.4085 2.10311 -0.26514
upperback 1.67956 2.95488 -0.0998236
thorax -5.74798 1.54286 -0.499066
lowerneck -15.9539 -2.92996 -12.6152
upperneck 36.2507 -7.15926 8.07466
head 16.4192 -4.82424 4.11068
rclavicle -3.43152e-014 5.56597e-015
rhumerus -34.9523 -15.1289 -74.9104
rradius 38.2517
rwrist 4.54029
rhand -21.2651 8.02227
rfingers 7.12502
rthumb 5.11834 -21.8959
lclavicle -3.43152e-014 5.56597e-015
lhumerus -36.7242 14.7428 71.6335
lradius 34.4583
lwrist -6.48416
lhand -18.832 23.5959
lfingers 7.12502
lthumb 7.46732 53.4441
rfemur -3.22722 0.935862 16.0821
rtibia 26.8181
rfoot -18.2376 -1.55561
rtoes -8.7532
lfemur -10.781 -4.53276 -12.6097
ltibia 36.8578
lfoot -16.1142 1.02674
ltoes -18.1786
367
root 1.2194 17.8316 12.466 -182.304 0.330983 -179.33
lowerback 13.3328 2.04686 -0.0270738
upperback 1.66656 2.91332 -0.089718
thorax -5.70893 1.51661 -0.611658
lowerneck -15.8695 -2.97027 -12.6216
upperneck 36.1777 -7.20404 8.05048
head 16.3673 -4.8433 4.09156
rclavicle -6.16232e-015 6.75868e-015
rhumerus -34.9917 -15.4274 -74.5486
rradius 38.1672
rwrist 4.53477
rhand -21.2013 7.74824
rfingers 7.12502
rthumb 5.18 -22.1684
lclavicle -6.16232e-015 6.75868e-015
lhumerus -36.8458 14.8025 71.8348
lradius 34.3851
lwrist -6.14005
lhand -18.0108 23.41
lfingers 7.12502
lthumb 8.25988 53.2286
rfemur -3.51028 0.867127 16.4014
rtibia 27.4134
rfoot -18.4646 -1.83568
rtoes -9.06453
lfemur -10.8661 -3.80288 -13.3901
ltibia 37.3625
lfoot -17.3276 -1.76474
ltoes -17.4836
368
root 1.27614 17.8157 12.4769 -182.338 0.0952259 -179.376
lowerback 13.2942 2.00306 0.0758955
upperback 1.60897 2.86359 -0.109074
thorax -5.74286 1.48717 -0.680656
lowerneck -15.6754 -2.94501 -12.4754
upperneck 36.1546 -7.19654 7.90755
head 16.2912 -4.8468 4.00306
rclavicle -5.20816e-014 5.26779e-015
rhumerus -35.1229 -15.7121 -74.1833
rradius 38.087
rwrist 4.48233
rhand -21.1913 7.01893
rfingers 7.12502
rthumb 5.18963 -22.8975
lclavicle -5.20816e-014 5.26779e-015
lhumerus -37.0421 14.8545 71.9567
lradius 34.3198
lwrist -6.13844
lhand -17.888 23.611
lfingers 7.12502
lthumb 8.37846 53.4248
rfemur -3.76536 0.792678 16.578
rtibia 28.0176
rfoot -18.7459 -2.11647
rtoes -8.99512
lfemur -10.8924 -3.15127 -14.3225
ltibia 37.7861
lfoot -18.5938 -4.36375
ltoes -18.0677
369
root 1.32932 17.7995 12.4868 -182.385 -0.0635647 -179.463
lowerback 13.2685 2.23763 0.225313
upperback 1.59548 2.79833 -0.140949
thorax -5.73377 1.28308 -0.768685
lowerneck -15.7035 -2.93933 -12.3975
upperneck 36.2329 -7.19413 7.82312
head 16.3297 -4.85041 3.95279
rclavicle -2.94326e-014 3.97569e-016
rhumerus -35.2206 -15.9678 -73.854
rradius 38.0223
rwrist 4.41376
rhand -21.2616 6.75369
rfingers 7.12502
rthumb 5.1218 -23.1644
lclavicle -2.94326e-014 3.97569e-016
lhumerus -37.0734 14.817 72.1443
lradius 34.2076
lwrist -5.96774
lhand -18.0492 22.614
lfingers 7.12502
lthumb 8.22286 52.434
rfemur -4.05507 0.784733 16.7017
rtibia 28.6648
rfoot -19.0162 -2.35091
rtoes -8.74289
lfemur -10.8604 -2.41576 -15.3112
ltibia 38.1145
lfoot -20.0138 -6.73377
ltoes -20.0735
370
root 1.38334 17.7843 12.4916 -182.402 -0.210767 -179.546
lowerback 13.1615 2.21709 0.236532
upperback 1.59048 2.77614 -0.132514
thorax -5.67998 1.27382 -0.758109
lowerneck -15.6717 -2.96481 -12.4522
upperneck 36.2205 -7.20341 7.7946
head 16.3188 -4.86484 3.94813
rclavicle 7.51655e-015 -1.2921e-015
rhumerus -35.3227 -16.2444 -73.4692
rradius 37.9501
rwrist 4.36241
rhand -21.2635 6.72888
rfingers 7.12502
rthumb 5.11994 -23.1893
lclavicle 7.51655e-015 -1.2921e-015
lhumerus -37.0881 14.9794 72.3223
lradius 34.0205
lwrist -5.97965
lhand -17.869 21.8065
lfingers 7.12502
lthumb 8.39673 51.6196
rfemur -4.35616 0.857251 16.8364
rtibia 29.3227
rfoot -19.3211 -2.57497
rtoes -8.21837
lfemur -10.7971 -1.79546 -16.2816
ltibia 38.3589
lfoot -21.0982 -9.20621
ltoes -20.8737
